<svg enable-background="new 0 0 255.767 85.879" height="85.879" viewBox="0 0 255.767 85.879" width="255.767" xmlns="http://www.w3.org/2000/svg"><g fill="#464646"><path d="m57.559 48.137c-1.996 7.12-7.979 12.302-15.031 12.302-8.679 0-15.74-7.851-15.74-17.501 0-9.649 7.062-17.499 15.74-17.499 7.053 0 13.036 5.183 15.031 12.302l10.251-1.08c-2.733-11.837-13.011-20.641-25.283-20.641-14.359 0-26 12.052-26 26.919s11.641 26.921 26 26.921c12.271 0 22.549-8.805 25.281-20.643z"/><path d="m109.766 49.643c-1.835 8.341-8.34 13.263-17.765 13.263-11.345 0-19.517-7.257-19.517-18.85s8.258-19.934 19.266-19.934c12.01 0 18.183 8.341 18.183 18.349v3.169h-27.607c.333 6.005 4.586 9.675 10.008 9.675 4.922 0 7.923-2.168 9.34-6.505zm-9.592-9.258c-.166-4.752-2.918-8.922-8.508-8.922-5.503 0-8.59 4.002-9.173 8.922z"/><path d="m215.167 35.967c-1.919-1.084-3.586-1.584-6.005-1.584-5.17 0-8.674 3.669-8.674 10.341v18.182h-10.008v-36.78h10.008v7.006c1.335-4.17 5.17-8.006 10.26-8.006 2.25 0 4.086.583 5.169 1.5z"/><path d="m184.442 49.643c-1.835 8.341-8.339 13.263-17.764 13.263-11.345 0-19.519-7.257-19.519-18.85s8.258-19.934 19.268-19.934c12.01 0 18.182 8.341 18.182 18.349v3.169h-27.606c.333 6.005 4.587 9.675 10.009 9.675 4.922 0 7.924-2.168 9.34-6.505zm-9.591-9.258c-.165-4.752-2.917-8.922-8.507-8.922-5.504 0-8.59 4.002-9.174 8.922z"/><path d="m132.322 10.973h10.008v51.933h-10.008z"/><path d="m116.123 10.973h10.008v51.933h-10.008z"/><path d="m245.969 25.125v18.371c0 5.915-3.102 10.856-8.082 10.856-4.816 0-7.021-3.183-7.021-8.735v-20.492h-9.797v22.452c0 8 3.51 14.532 13.143 14.532 5.391 0 9.962-1.58 11.758-5.664v3.317c0 5.06-2.162 10.514-8.63 10.514-2.47 0-6.162-1.883-7.471-5.274l-9.999 1.096c2.457 7.116 9.069 10.996 15.707 11.523 10.279.814 20.19-4.478 20.19-23.23v-29.266z"/><path d="m71.865 65.502c-.363-.363-.957-.363-1.32 0l-9.035 9.033c-.363.363-.992.917-1.398 1.231 0 0-1.377 1.065-2.732 1.644-1.447.617-3.367.877-3.367.877-.51.068-1.346.125-1.859.125h-18.426c-.514 0-1.349-.061-1.857-.136 0 0-2.194-.321-3.743-1.032-1.211-.557-2.363-1.47-2.363-1.47-.402-.318-1.029-.876-1.393-1.239l-13.028-13.025c-.363-.363-.92-.99-1.238-1.393 0 0-.92-1.166-1.479-2.385-.707-1.543-1.024-3.722-1.024-3.722-.073-.508-.134-1.344-.134-1.857v-18.426c0-.514.055-1.35.121-1.859 0 0 .24-1.822.822-3.23.584-1.406 1.703-2.865 1.703-2.865.312-.407.865-1.037 1.229-1.4l13.027-13.027c.363-.363.991-.919 1.396-1.234 0 0 1.286-1.004 2.584-1.574 1.488-.656 3.518-.939 3.518-.939.509-.071 1.345-.129 1.858-.129h18.425c.514 0 1.35.055 1.859.122 0 0 1.824.241 3.23.823 1.407.582 2.867 1.703 2.867 1.703.407.312 1.037.865 1.4 1.229l8.323 8.322c.363.363.957.363 1.32 0l3.96-3.959c.363-.363.363-.957 0-1.32l-10.507-10.515c-.363-.363-.994-.916-1.4-1.229 0 0-1.459-1.119-2.867-1.703-1.408-.582-3.23-.821-3.23-.821-.511-.067-1.347-.122-1.861-.122h-24.611c-.514 0-1.35.055-1.859.122 0 0-1.822.239-3.229.821-1.407.584-2.867 1.703-2.867 1.703-.407.312-1.038.865-1.401 1.229l-17.4 17.402c-.363.363-.92.99-1.237 1.395 0 0-.957 1.219-1.521 2.473-.684 1.518-.986 3.633-.986 3.633-.074.507-.135 1.343-.135 1.857v24.611c0 .514.055 1.35.122 1.859 0 0 .239 1.822.823 3.229.583 1.408 1.703 2.867 1.703 2.867.312.407.865 1.037 1.229 1.4l17.4 17.402c.363.363.992.918 1.396 1.234 0 0 1.301 1.014 2.608 1.584 1.481.648 3.494.928 3.494.928.509.071 1.345.129 1.858.129h24.611c.514 0 1.35-.054 1.859-.119 0 0 1.76-.227 3.14-.787 1.44-.586 2.956-1.742 2.956-1.742.408-.312 1.039-.863 1.402-1.227l11.221-11.223c.363-.363.363-.957 0-1.32z"/></g></svg>